G04 Layer: B.Silk (Bottom Silkscreen) - TerraScout Grounded*
%FSLAX46Y46*%
%MOMM*%
%TF.GenerationSoftware,TerraScout_PCB_Engine,v1.0*%
%TF.FileFunction,Legend,Bot*%
%LPD*%
%ADD10C,0.150000*%
D10*
X0034663000Y0040000000D02*
X0034663000Y0040980000D01*
X0034173000Y0040980000D02*
X0035153000Y0040980000D01*
X0035986000Y0040980000D02*
X0035006000Y0040980000D01*
X0035006000Y0040980000D02*
X0035006000Y0040000000D01*
X0035006000Y0040000000D02*
X0035986000Y0040000000D01*
X0035006000Y0040490000D02*
X0035692000Y0040490000D01*
X0035839000Y0040000000D02*
X0035839000Y0040980000D01*
X0035839000Y0040980000D02*
X0036819000Y0040980000D01*
X0036819000Y0040980000D02*
X0036819000Y0040490000D01*
X0036819000Y0040490000D02*
X0035839000Y0040490000D01*
X0036329000Y0040490000D02*
X0036819000Y0040000000D01*
X0036672000Y0040000000D02*
X0036672000Y0040980000D01*
X0036672000Y0040980000D02*
X0037652000Y0040980000D01*
X0037652000Y0040980000D02*
X0037652000Y0040490000D01*
X0037652000Y0040490000D02*
X0036672000Y0040490000D01*
X0037162000Y0040490000D02*
X0037652000Y0040000000D01*
X0037505000Y0040000000D02*
X0037505000Y0040980000D01*
X0037505000Y0040980000D02*
X0038485000Y0040980000D01*
X0038485000Y0040980000D02*
X0038485000Y0040000000D01*
X0037505000Y0040490000D02*
X0038485000Y0040490000D01*
X0039318000Y0040980000D02*
X0038338000Y0040980000D01*
X0038338000Y0040980000D02*
X0038338000Y0040490000D01*
X0038338000Y0040490000D02*
X0039318000Y0040490000D01*
X0039318000Y0040490000D02*
X0039318000Y0040000000D01*
X0039318000Y0040000000D02*
X0038338000Y0040000000D01*
X0040151000Y0040980000D02*
X0039171000Y0040980000D01*
X0039171000Y0040980000D02*
X0039171000Y0040000000D01*
X0039171000Y0040000000D02*
X0040151000Y0040000000D01*
X0040004000Y0040000000D02*
X0040004000Y0040980000D01*
X0040004000Y0040980000D02*
X0040984000Y0040980000D01*
X0040984000Y0040980000D02*
X0040984000Y0040000000D01*
X0040984000Y0040000000D02*
X0040004000Y0040000000D01*
X0040837000Y0040980000D02*
X0040837000Y0040000000D01*
X0040837000Y0040000000D02*
X0041817000Y0040000000D01*
X0041817000Y0040000000D02*
X0041817000Y0040980000D01*
X0042160000Y0040000000D02*
X0042160000Y0040980000D01*
X0041670000Y0040980000D02*
X0042650000Y0040980000D01*
X0043336000Y0040000000D02*
X0043336000Y0040980000D01*
X0043336000Y0040980000D02*
X0044120000Y0040980000D01*
X0044120000Y0040980000D02*
X0044316000Y0040735000D01*
X0044316000Y0040735000D02*
X0044120000Y0040490000D01*
X0044120000Y0040490000D02*
X0043336000Y0040490000D01*
X0044120000Y0040490000D02*
X0044316000Y0040245000D01*
X0044316000Y0040245000D02*
X0044120000Y0040000000D01*
X0044120000Y0040000000D02*
X0043336000Y0040000000D01*
X0044169000Y0040000000D02*
X0044169000Y0040980000D01*
X0044169000Y0040980000D02*
X0045149000Y0040980000D01*
X0045149000Y0040980000D02*
X0045149000Y0040000000D01*
X0045149000Y0040000000D02*
X0044169000Y0040000000D01*
X0045492000Y0040000000D02*
X0045492000Y0040980000D01*
X0045002000Y0040980000D02*
X0045982000Y0040980000D01*
X0046325000Y0040000000D02*
X0046325000Y0040980000D01*
X0045835000Y0040980000D02*
X0046815000Y0040980000D01*
X0046668000Y0040000000D02*
X0046668000Y0040980000D01*
X0046668000Y0040980000D02*
X0047648000Y0040980000D01*
X0047648000Y0040980000D02*
X0047648000Y0040000000D01*
X0047648000Y0040000000D02*
X0046668000Y0040000000D01*
X0047501000Y0040000000D02*
X0047501000Y0040980000D01*
X0047501000Y0040980000D02*
X0047991000Y0040490000D01*
X0047991000Y0040490000D02*
X0048481000Y0040980000D01*
X0048481000Y0040980000D02*
X0048481000Y0040000000D01*
X0049363000Y0040490000D02*
X0049951000Y0040490000D01*
X0050833000Y0040000000D02*
X0050833000Y0040980000D01*
X0051813000Y0040000000D02*
X0051813000Y0040980000D01*
X0050833000Y0040490000D02*
X0051813000Y0040490000D01*
X0051666000Y0040000000D02*
X0051666000Y0040980000D01*
X0051666000Y0040980000D02*
X0052646000Y0040980000D01*
X0052646000Y0040980000D02*
X0052646000Y0040000000D01*
X0051666000Y0040490000D02*
X0052646000Y0040490000D01*
X0053479000Y0040980000D02*
X0052499000Y0040980000D01*
X0052499000Y0040980000D02*
X0052499000Y0040000000D01*
X0052499000Y0040000000D02*
X0053479000Y0040000000D01*
X0053332000Y0040000000D02*
X0053332000Y0040980000D01*
X0054312000Y0040980000D02*
X0053332000Y0040490000D01*
X0053332000Y0040490000D02*
X0054312000Y0040000000D01*
X0055978000Y0040980000D02*
X0054998000Y0040980000D01*
X0054998000Y0040980000D02*
X0054998000Y0040000000D01*
X0054998000Y0040000000D02*
X0055978000Y0040000000D01*
X0055831000Y0040980000D02*
X0055831000Y0040000000D01*
X0055831000Y0040000000D02*
X0056811000Y0040000000D01*
X0056664000Y0040980000D02*
X0056664000Y0040000000D01*
X0056664000Y0040000000D02*
X0057644000Y0040000000D01*
X0057644000Y0040000000D02*
X0057644000Y0040980000D01*
X0057497000Y0040000000D02*
X0057497000Y0040980000D01*
X0057497000Y0040980000D02*
X0058281000Y0040980000D01*
X0058281000Y0040980000D02*
X0058477000Y0040735000D01*
X0058477000Y0040735000D02*
X0058281000Y0040490000D01*
X0058281000Y0040490000D02*
X0057497000Y0040490000D01*
X0058281000Y0040490000D02*
X0058477000Y0040245000D01*
X0058477000Y0040245000D02*
X0058281000Y0040000000D01*
X0058281000Y0040000000D02*
X0057497000Y0040000000D01*
X0060143000Y0040980000D02*
X0059163000Y0040980000D01*
X0059163000Y0040980000D02*
X0059163000Y0040000000D01*
X0059163000Y0040000000D02*
X0060143000Y0040000000D01*
X0060143000Y0040000000D02*
X0060143000Y0040490000D01*
X0060143000Y0040490000D02*
X0059653000Y0040490000D01*
X0059996000Y0040000000D02*
X0059996000Y0040980000D01*
X0059996000Y0040980000D02*
X0060976000Y0040980000D01*
X0060976000Y0040980000D02*
X0060976000Y0040490000D01*
X0060976000Y0040490000D02*
X0059996000Y0040490000D01*
X0060486000Y0040490000D02*
X0060976000Y0040000000D01*
X0060829000Y0040000000D02*
X0060829000Y0040980000D01*
X0060829000Y0040980000D02*
X0061809000Y0040980000D01*
X0061809000Y0040980000D02*
X0061809000Y0040000000D01*
X0061809000Y0040000000D02*
X0060829000Y0040000000D01*
X0061662000Y0040980000D02*
X0061662000Y0040000000D01*
X0061662000Y0040000000D02*
X0062642000Y0040000000D01*
X0062642000Y0040000000D02*
X0062642000Y0040980000D01*
X0062495000Y0040000000D02*
X0062495000Y0040980000D01*
X0062495000Y0040980000D02*
X0063475000Y0040000000D01*
X0063475000Y0040000000D02*
X0063475000Y0040980000D01*
X0063328000Y0040000000D02*
X0063328000Y0040980000D01*
X0063328000Y0040980000D02*
X0064014000Y0040980000D01*
X0064014000Y0040980000D02*
X0064308000Y0040490000D01*
X0064308000Y0040490000D02*
X0064014000Y0040000000D01*
X0064014000Y0040000000D02*
X0063328000Y0040000000D01*
X0065141000Y0040980000D02*
X0064161000Y0040980000D01*
X0064161000Y0040980000D02*
X0064161000Y0040000000D01*
X0064161000Y0040000000D02*
X0065141000Y0040000000D01*
X0064161000Y0040490000D02*
X0064847000Y0040490000D01*
X0064994000Y0040000000D02*
X0064994000Y0040980000D01*
X0064994000Y0040980000D02*
X0065680000Y0040980000D01*
X0065680000Y0040980000D02*
X0065974000Y0040490000D01*
X0065974000Y0040490000D02*
X0065680000Y0040000000D01*
X0065680000Y0040000000D02*
X0064994000Y0040000000D01*
M02*
