M48
; DRILL file {TerraScout Rover 2-Layer PCB}
; FORMAT={-:-/ absolute / metric / decimal}
FMAT,2
METRIC,TZ
T1C0.300
T2C0.900
T3C1.000
T4C1.200
T5C3.200
%
G90
G05
T1
X73.100Y41.200
X73.100Y42.000
X73.100Y42.800
X74.900Y41.200
X74.900Y42.000
X74.900Y42.800
X32.750Y18.000
X11.500Y67.500
X22.000Y48.000
X48.000Y18.000
X26.000Y20.000
X78.750Y73.000
X71.300Y40.370
X81.750Y15.000
X71.300Y41.670
X84.250Y15.000
X26.000Y42.860
X76.700Y41.020
X26.000Y37.780
X63.750Y73.000
X26.000Y40.320
X66.250Y73.000
X26.000Y27.620
X81.250Y73.000
X26.000Y25.080
X83.750Y73.000
X15.000Y6.000
X30.000Y6.000
X45.000Y6.000
X60.000Y6.000
X75.000Y6.000
X85.000Y6.000
X15.000Y74.000
X30.000Y74.000
X45.000Y74.000
X60.000Y74.000
X75.000Y74.000
X85.000Y74.000
X5.000Y20.000
X95.000Y20.000
X5.000Y35.000
X95.000Y35.000
X5.000Y50.000
X95.000Y50.000
X5.000Y65.000
X95.000Y65.000
X21.000Y22.000
X38.000Y21.000
X38.000Y70.000
X55.000Y22.000
X55.000Y50.000
X55.000Y70.000
X68.000Y55.000
X82.000Y27.000
X88.000Y45.000
X88.000Y68.000
T2
X26.000Y20.000
X26.000Y22.540
X26.000Y25.080
X26.000Y27.620
X26.000Y30.160
X26.000Y32.700
X26.000Y35.240
X26.000Y37.780
X26.000Y40.320
X26.000Y42.860
X26.000Y45.400
X26.000Y47.940
X26.000Y50.480
X26.000Y53.020
X26.000Y55.560
X26.000Y58.100
X26.000Y60.640
X26.000Y63.180
X26.000Y65.720
X26.000Y68.260
X26.000Y70.800
X26.000Y73.340
X51.400Y20.000
X51.400Y22.540
X51.400Y25.080
X51.400Y27.620
X51.400Y30.160
X51.400Y32.700
X51.400Y35.240
X51.400Y37.780
X51.400Y40.320
X51.400Y42.860
X51.400Y45.400
X51.400Y47.940
X51.400Y50.480
X51.400Y53.020
X51.400Y55.560
X51.400Y58.100
X51.400Y60.640
X51.400Y63.180
X51.400Y65.720
X51.400Y68.260
X51.400Y70.800
X51.400Y73.340
X45.460Y13.000
X48.000Y13.000
X50.540Y13.000
X88.000Y52.190
X88.000Y54.730
X88.000Y57.270
X88.000Y59.810
X39.730Y13.000
X42.270Y13.000
X44.810Y13.000
X72.750Y26.000
X75.250Y26.000
T3
X61.750Y15.000
X64.250Y15.000
X81.750Y15.000
X84.250Y15.000
X61.250Y73.000
X63.750Y73.000
X66.250Y73.000
X68.750Y73.000
X76.250Y73.000
X78.750Y73.000
X81.250Y73.000
X83.750Y73.000
X32.750Y13.000
X35.250Y13.000
X13.730Y13.000
X16.270Y13.000
T4
X11.500Y27.500
X18.500Y27.500
X11.500Y44.500
X18.500Y44.500
X11.500Y52.500
X18.500Y52.500
X11.500Y67.500
X18.500Y67.500
T5
X10.000Y10.000
X90.000Y10.000
X10.000Y70.000
X90.000Y70.000
M30
