G04 Layer: F.Silk (Top Silkscreen) - TerraScout Grounded*
%FSLAX46Y46*%
%MOMM*%
%TF.GenerationSoftware,TerraScout_PCB_Engine,v1.0*%
%TF.FileFunction,Legend,Top*%
%LPD*%
%ADD10C,0.150000*%
%ADD11C,0.250000*%
D10*
X0013600000Y0010000000D02*
X0013326000Y0011377700D01*
X0013326000Y0011377700D02*
X0012545600Y0012545600D01*
X0012545600Y0012545600D02*
X0011377700Y0013326000D01*
X0011377700Y0013326000D02*
X0010000000Y0013600000D01*
X0010000000Y0013600000D02*
X0008622300Y0013326000D01*
X0008622300Y0013326000D02*
X0007454400Y0012545600D01*
X0007454400Y0012545600D02*
X0006674000Y0011377700D01*
X0006674000Y0011377700D02*
X0006400000Y0010000000D01*
X0006400000Y0010000000D02*
X0006674000Y0008622300D01*
X0006674000Y0008622300D02*
X0007454400Y0007454400D01*
X0007454400Y0007454400D02*
X0008622300Y0006674000D01*
X0008622300Y0006674000D02*
X0010000000Y0006400000D01*
X0010000000Y0006400000D02*
X0011377700Y0006674000D01*
X0011377700Y0006674000D02*
X0012545600Y0007454400D01*
X0012545600Y0007454400D02*
X0013326000Y0008622300D01*
X0013326000Y0008622300D02*
X0013600000Y0010000000D01*
X0093600000Y0010000000D02*
X0093326000Y0011377700D01*
X0093326000Y0011377700D02*
X0092545600Y0012545600D01*
X0092545600Y0012545600D02*
X0091377700Y0013326000D01*
X0091377700Y0013326000D02*
X0090000000Y0013600000D01*
X0090000000Y0013600000D02*
X0088622300Y0013326000D01*
X0088622300Y0013326000D02*
X0087454400Y0012545600D01*
X0087454400Y0012545600D02*
X0086674000Y0011377700D01*
X0086674000Y0011377700D02*
X0086400000Y0010000000D01*
X0086400000Y0010000000D02*
X0086674000Y0008622300D01*
X0086674000Y0008622300D02*
X0087454400Y0007454400D01*
X0087454400Y0007454400D02*
X0088622300Y0006674000D01*
X0088622300Y0006674000D02*
X0090000000Y0006400000D01*
X0090000000Y0006400000D02*
X0091377700Y0006674000D01*
X0091377700Y0006674000D02*
X0092545600Y0007454400D01*
X0092545600Y0007454400D02*
X0093326000Y0008622300D01*
X0093326000Y0008622300D02*
X0093600000Y0010000000D01*
X0013600000Y0070000000D02*
X0013326000Y0071377700D01*
X0013326000Y0071377700D02*
X0012545600Y0072545600D01*
X0012545600Y0072545600D02*
X0011377700Y0073326000D01*
X0011377700Y0073326000D02*
X0010000000Y0073600000D01*
X0010000000Y0073600000D02*
X0008622300Y0073326000D01*
X0008622300Y0073326000D02*
X0007454400Y0072545600D01*
X0007454400Y0072545600D02*
X0006674000Y0071377700D01*
X0006674000Y0071377700D02*
X0006400000Y0070000000D01*
X0006400000Y0070000000D02*
X0006674000Y0068622300D01*
X0006674000Y0068622300D02*
X0007454400Y0067454400D01*
X0007454400Y0067454400D02*
X0008622300Y0066674000D01*
X0008622300Y0066674000D02*
X0010000000Y0066400000D01*
X0010000000Y0066400000D02*
X0011377700Y0066674000D01*
X0011377700Y0066674000D02*
X0012545600Y0067454400D01*
X0012545600Y0067454400D02*
X0013326000Y0068622300D01*
X0013326000Y0068622300D02*
X0013600000Y0070000000D01*
X0093600000Y0070000000D02*
X0093326000Y0071377700D01*
X0093326000Y0071377700D02*
X0092545600Y0072545600D01*
X0092545600Y0072545600D02*
X0091377700Y0073326000D01*
X0091377700Y0073326000D02*
X0090000000Y0073600000D01*
X0090000000Y0073600000D02*
X0088622300Y0073326000D01*
X0088622300Y0073326000D02*
X0087454400Y0072545600D01*
X0087454400Y0072545600D02*
X0086674000Y0071377700D01*
X0086674000Y0071377700D02*
X0086400000Y0070000000D01*
X0086400000Y0070000000D02*
X0086674000Y0068622300D01*
X0086674000Y0068622300D02*
X0087454400Y0067454400D01*
X0087454400Y0067454400D02*
X0088622300Y0066674000D01*
X0088622300Y0066674000D02*
X0090000000Y0066400000D01*
X0090000000Y0066400000D02*
X0091377700Y0066674000D01*
X0091377700Y0066674000D02*
X0092545600Y0067454400D01*
X0092545600Y0067454400D02*
X0093326000Y0068622300D01*
X0093326000Y0068622300D02*
X0093600000Y0070000000D01*
X0023500000Y0017500000D02*
X0053900000Y0017500000D01*
X0053900000Y0017500000D02*
X0053900000Y0075800000D01*
X0053900000Y0075800000D02*
X0023500000Y0075800000D01*
X0023500000Y0075800000D02*
X0023500000Y0017500000D01*
X0030000000Y0073500000D02*
X0047400000Y0073500000D01*
X0070000000Y0039000000D02*
X0078000000Y0039000000D01*
X0078000000Y0039000000D02*
X0078000000Y0045000000D01*
X0078000000Y0045000000D02*
X0070000000Y0045000000D01*
X0070000000Y0045000000D02*
X0070000000Y0039000000D01*
X0070400000Y0044500000D02*
X0070400000Y0044500000D01*
X0009000000Y0025500000D02*
X0021000000Y0025500000D01*
X0021000000Y0025500000D02*
X0021000000Y0046500000D01*
X0021000000Y0046500000D02*
X0009000000Y0046500000D01*
X0009000000Y0046500000D02*
X0009000000Y0025500000D01*
X0009000000Y0050500000D02*
X0021000000Y0050500000D01*
X0021000000Y0050500000D02*
X0021000000Y0069500000D01*
X0021000000Y0069500000D02*
X0009000000Y0069500000D01*
X0009000000Y0069500000D02*
X0009000000Y0050500000D01*
X0059500000Y0012000000D02*
X0066500000Y0012000000D01*
X0066500000Y0012000000D02*
X0066500000Y0018000000D01*
X0066500000Y0018000000D02*
X0059500000Y0018000000D01*
X0059500000Y0018000000D02*
X0059500000Y0012000000D01*
X0079500000Y0012000000D02*
X0086500000Y0012000000D01*
X0086500000Y0012000000D02*
X0086500000Y0018000000D01*
X0086500000Y0018000000D02*
X0079500000Y0018000000D01*
X0079500000Y0018000000D02*
X0079500000Y0012000000D01*
X0059000000Y0070000000D02*
X0071000000Y0070000000D01*
X0071000000Y0070000000D02*
X0071000000Y0076000000D01*
X0071000000Y0076000000D02*
X0059000000Y0076000000D01*
X0059000000Y0076000000D02*
X0059000000Y0070000000D01*
X0074000000Y0070000000D02*
X0086000000Y0070000000D01*
X0086000000Y0070000000D02*
X0086000000Y0076000000D01*
X0086000000Y0076000000D02*
X0074000000Y0076000000D01*
X0074000000Y0076000000D02*
X0074000000Y0070000000D01*
X0043500000Y0011000000D02*
X0052500000Y0011000000D01*
X0052500000Y0011000000D02*
X0052500000Y0015000000D01*
X0052500000Y0015000000D02*
X0043500000Y0015000000D01*
X0043500000Y0015000000D02*
X0043500000Y0011000000D01*
X0086000000Y0050500000D02*
X0090000000Y0050500000D01*
X0090000000Y0050500000D02*
X0090000000Y0061500000D01*
X0090000000Y0061500000D02*
X0086000000Y0061500000D01*
X0086000000Y0061500000D02*
X0086000000Y0050500000D01*
X0030500000Y0010500000D02*
X0037500000Y0010500000D01*
X0037500000Y0010500000D02*
X0037500000Y0015500000D01*
X0037500000Y0015500000D02*
X0030500000Y0015500000D01*
X0030500000Y0015500000D02*
X0030500000Y0010500000D01*
X0011500000Y0010500000D02*
X0018500000Y0010500000D01*
X0018500000Y0010500000D02*
X0018500000Y0015500000D01*
X0018500000Y0015500000D02*
X0011500000Y0015500000D01*
X0011500000Y0015500000D02*
X0011500000Y0010500000D01*
X0038000000Y0010500000D02*
X0046000000Y0010500000D01*
X0046000000Y0010500000D02*
X0046000000Y0015500000D01*
X0046000000Y0015500000D02*
X0038000000Y0015500000D01*
X0038000000Y0015500000D02*
X0038000000Y0010500000D01*
X0071750000Y0031000000D02*
X0076250000Y0031000000D01*
X0076250000Y0031000000D02*
X0076250000Y0033000000D01*
X0076250000Y0033000000D02*
X0071750000Y0033000000D01*
X0071750000Y0033000000D02*
X0071750000Y0031000000D01*
X0009250000Y0047000000D02*
X0013750000Y0047000000D01*
X0013750000Y0047000000D02*
X0013750000Y0049000000D01*
X0013750000Y0049000000D02*
X0009250000Y0049000000D01*
X0009250000Y0049000000D02*
X0009250000Y0047000000D01*
X0077850000Y0041175000D02*
X0081150000Y0041175000D01*
X0081150000Y0041175000D02*
X0081150000Y0042825000D01*
X0081150000Y0042825000D02*
X0077850000Y0042825000D01*
X0077850000Y0042825000D02*
X0077850000Y0041175000D01*
X0024350000Y0015175000D02*
X0027650000Y0015175000D01*
X0027650000Y0015175000D02*
X0027650000Y0016825000D01*
X0027650000Y0016825000D02*
X0024350000Y0016825000D01*
X0024350000Y0016825000D02*
X0024350000Y0015175000D01*
X0082350000Y0066175000D02*
X0085650000Y0066175000D01*
X0085650000Y0066175000D02*
X0085650000Y0067825000D01*
X0085650000Y0067825000D02*
X0082350000Y0067825000D01*
X0082350000Y0067825000D02*
X0082350000Y0066175000D01*
X0082350000Y0063175000D02*
X0085650000Y0063175000D01*
X0085650000Y0063175000D02*
X0085650000Y0064825000D01*
X0085650000Y0064825000D02*
X0082350000Y0064825000D01*
X0082350000Y0064825000D02*
X0082350000Y0063175000D01*
X0046350000Y0027175000D02*
X0049650000Y0027175000D01*
X0049650000Y0027175000D02*
X0049650000Y0028825000D01*
X0049650000Y0028825000D02*
X0046350000Y0028825000D01*
X0046350000Y0028825000D02*
X0046350000Y0027175000D01*
X0046350000Y0024175000D02*
X0049650000Y0024175000D01*
X0049650000Y0024175000D02*
X0049650000Y0025825000D01*
X0049650000Y0025825000D02*
X0046350000Y0025825000D01*
X0046350000Y0025825000D02*
X0046350000Y0024175000D01*
X0020350000Y0015175000D02*
X0023650000Y0015175000D01*
X0023650000Y0015175000D02*
X0023650000Y0016825000D01*
X0023650000Y0016825000D02*
X0020350000Y0016825000D01*
X0020350000Y0016825000D02*
X0020350000Y0015175000D01*
X0020350000Y0012175000D02*
X0023650000Y0012175000D01*
X0023650000Y0012175000D02*
X0023650000Y0013825000D01*
X0023650000Y0013825000D02*
X0020350000Y0013825000D01*
X0020350000Y0013825000D02*
X0020350000Y0012175000D01*
X0024350000Y0012175000D02*
X0027650000Y0012175000D01*
X0027650000Y0012175000D02*
X0027650000Y0013825000D01*
X0027650000Y0013825000D02*
X0024350000Y0013825000D01*
X0024350000Y0013825000D02*
X0024350000Y0012175000D01*
X0024350000Y0009675000D02*
X0027650000Y0009675000D01*
X0027650000Y0009675000D02*
X0027650000Y0011325000D01*
X0027650000Y0011325000D02*
X0024350000Y0011325000D01*
X0024350000Y0011325000D02*
X0024350000Y0009675000D01*
X0053000000Y0007500000D02*
X0057000000Y0007500000D01*
X0057000000Y0007500000D02*
X0057000000Y0018500000D01*
X0057000000Y0018500000D02*
X0053000000Y0018500000D01*
X0053000000Y0018500000D02*
X0053000000Y0007500000D01*
X0021350000Y0021715000D02*
X0024650000Y0021715000D01*
X0024650000Y0021715000D02*
X0024650000Y0023365000D01*
X0024650000Y0023365000D02*
X0021350000Y0023365000D01*
X0021350000Y0023365000D02*
X0021350000Y0021715000D01*
X0052850000Y0052195000D02*
X0056150000Y0052195000D01*
X0056150000Y0052195000D02*
X0056150000Y0053845000D01*
X0056150000Y0053845000D02*
X0052850000Y0053845000D01*
X0052850000Y0053845000D02*
X0052850000Y0052195000D01*
X0003000000Y0069000000D02*
X0007000000Y0069000000D01*
X0003000000Y0071000000D02*
X0007000000Y0071000000D01*
X0003500000Y0068000000D02*
X0003500000Y0072000000D01*
X0006500000Y0068000000D02*
X0006500000Y0072000000D01*
X0035676000Y0073260000D02*
X0034416000Y0073260000D01*
X0034416000Y0073260000D02*
X0034416000Y0072000000D01*
X0034416000Y0072000000D02*
X0035676000Y0072000000D01*
X0034416000Y0072630000D02*
X0035298000Y0072630000D01*
X0036747000Y0073260000D02*
X0035487000Y0073260000D01*
X0035487000Y0073260000D02*
X0035487000Y0072630000D01*
X0035487000Y0072630000D02*
X0036747000Y0072630000D01*
X0036747000Y0072630000D02*
X0036747000Y0072000000D01*
X0036747000Y0072000000D02*
X0035487000Y0072000000D01*
X0036558000Y0072000000D02*
X0036558000Y0073260000D01*
X0036558000Y0073260000D02*
X0037818000Y0073260000D01*
X0037818000Y0073260000D02*
X0037818000Y0072630000D01*
X0037818000Y0072630000D02*
X0036558000Y0072630000D01*
X0037629000Y0073260000D02*
X0038889000Y0073260000D01*
X0038889000Y0073260000D02*
X0038259000Y0072630000D01*
X0038259000Y0072630000D02*
X0038889000Y0072630000D01*
X0038889000Y0072630000D02*
X0038889000Y0072000000D01*
X0038889000Y0072000000D02*
X0037629000Y0072000000D01*
X0038700000Y0073260000D02*
X0039960000Y0073260000D01*
X0039960000Y0073260000D02*
X0039960000Y0072630000D01*
X0039960000Y0072630000D02*
X0038700000Y0072000000D01*
X0038700000Y0072000000D02*
X0039960000Y0072000000D01*
X0040023000Y0072630000D02*
X0040779000Y0072630000D01*
X0042102000Y0073260000D02*
X0040842000Y0073260000D01*
X0040842000Y0073260000D02*
X0040842000Y0072630000D01*
X0040842000Y0072630000D02*
X0042102000Y0072630000D01*
X0042102000Y0072630000D02*
X0042102000Y0072000000D01*
X0042102000Y0072000000D02*
X0040842000Y0072000000D01*
X0041913000Y0073260000D02*
X0043173000Y0073260000D01*
X0043173000Y0073260000D02*
X0042543000Y0072630000D01*
X0042543000Y0072630000D02*
X0043173000Y0072630000D01*
X0043173000Y0072630000D02*
X0043173000Y0072000000D01*
X0043173000Y0072000000D02*
X0041913000Y0072000000D01*
X0033940000Y0074000000D02*
X0033940000Y0074700000D01*
X0033940000Y0074700000D02*
X0034640000Y0074700000D01*
X0034640000Y0074700000D02*
X0034640000Y0074000000D01*
X0033940000Y0074350000D02*
X0034640000Y0074350000D01*
X0034535000Y0074000000D02*
X0034535000Y0074700000D01*
X0034535000Y0074700000D02*
X0035235000Y0074000000D01*
X0035235000Y0074000000D02*
X0035235000Y0074700000D01*
X0035480000Y0074000000D02*
X0035480000Y0074700000D01*
X0035130000Y0074700000D02*
X0035830000Y0074700000D01*
X0036425000Y0074700000D02*
X0035725000Y0074700000D01*
X0035725000Y0074700000D02*
X0035725000Y0074000000D01*
X0035725000Y0074000000D02*
X0036425000Y0074000000D01*
X0035725000Y0074350000D02*
X0036215000Y0074350000D01*
X0036320000Y0074000000D02*
X0036320000Y0074700000D01*
X0036320000Y0074700000D02*
X0037020000Y0074000000D01*
X0037020000Y0074000000D02*
X0037020000Y0074700000D01*
X0036915000Y0074000000D02*
X0036915000Y0074700000D01*
X0036915000Y0074700000D02*
X0037615000Y0074000000D01*
X0037615000Y0074000000D02*
X0037615000Y0074700000D01*
X0037510000Y0074000000D02*
X0037510000Y0074700000D01*
X0037510000Y0074700000D02*
X0038210000Y0074700000D01*
X0038210000Y0074700000D02*
X0038210000Y0074000000D01*
X0037510000Y0074350000D02*
X0038210000Y0074350000D01*
X0038700000Y0074000000D02*
X0038700000Y0074700000D01*
X0039400000Y0074700000D02*
X0038700000Y0074350000D01*
X0038700000Y0074350000D02*
X0039400000Y0074000000D01*
X0039995000Y0074700000D02*
X0039295000Y0074700000D01*
X0039295000Y0074700000D02*
X0039295000Y0074000000D01*
X0039295000Y0074000000D02*
X0039995000Y0074000000D01*
X0039295000Y0074350000D02*
X0039785000Y0074350000D01*
X0040590000Y0074700000D02*
X0039890000Y0074700000D01*
X0039890000Y0074700000D02*
X0039890000Y0074000000D01*
X0039890000Y0074000000D02*
X0040590000Y0074000000D01*
X0039890000Y0074350000D02*
X0040380000Y0074350000D01*
X0040485000Y0074000000D02*
X0040485000Y0074700000D01*
X0040485000Y0074700000D02*
X0041185000Y0074700000D01*
X0041185000Y0074700000D02*
X0041185000Y0074350000D01*
X0041185000Y0074350000D02*
X0040485000Y0074350000D01*
X0041220000Y0074350000D02*
X0041640000Y0074350000D01*
X0041675000Y0074000000D02*
X0041675000Y0074700000D01*
X0041675000Y0074700000D02*
X0042375000Y0074700000D01*
X0042375000Y0074700000D02*
X0042375000Y0074000000D01*
X0042375000Y0074000000D02*
X0041675000Y0074000000D01*
X0042270000Y0074700000D02*
X0042270000Y0074000000D01*
X0042270000Y0074000000D02*
X0042970000Y0074000000D01*
X0042970000Y0074000000D02*
X0042970000Y0074700000D01*
X0043215000Y0074000000D02*
X0043215000Y0074700000D01*
X0042865000Y0074700000D02*
X0043565000Y0074700000D01*
X0071292750Y0045800000D02*
X0071292750Y0046710000D01*
X0071292750Y0046710000D02*
X0071929750Y0046710000D01*
X0071929750Y0046710000D02*
X0072202750Y0046255000D01*
X0072202750Y0046255000D02*
X0071929750Y0045800000D01*
X0071929750Y0045800000D02*
X0071292750Y0045800000D01*
X0072066250Y0045800000D02*
X0072066250Y0046710000D01*
X0072066250Y0046710000D02*
X0072976250Y0046710000D01*
X0072976250Y0046710000D02*
X0072976250Y0046255000D01*
X0072976250Y0046255000D02*
X0072066250Y0046255000D01*
X0072521250Y0046255000D02*
X0072976250Y0045800000D01*
X0072839750Y0046710000D02*
X0073294750Y0045800000D01*
X0073294750Y0045800000D02*
X0073749750Y0046710000D01*
X0073613250Y0045800000D02*
X0073613250Y0046710000D01*
X0073613250Y0046710000D02*
X0074523250Y0046710000D01*
X0074523250Y0046710000D02*
X0074523250Y0045800000D01*
X0074523250Y0045800000D02*
X0073613250Y0045800000D01*
X0073613250Y0046255000D02*
X0074523250Y0046255000D01*
X0074386750Y0045800000D02*
X0074386750Y0046710000D01*
X0074386750Y0046710000D02*
X0075296750Y0046710000D01*
X0075296750Y0046710000D02*
X0075296750Y0045800000D01*
X0075296750Y0045800000D02*
X0074386750Y0045800000D01*
X0074386750Y0046255000D02*
X0075296750Y0046255000D01*
X0075160250Y0046710000D02*
X0076070250Y0046710000D01*
X0076070250Y0046710000D02*
X0075615250Y0046255000D01*
X0075615250Y0046255000D02*
X0076070250Y0046255000D01*
X0076070250Y0046255000D02*
X0076070250Y0045800000D01*
X0076070250Y0045800000D02*
X0075160250Y0045800000D01*
X0075933750Y0046710000D02*
X0076843750Y0046710000D01*
X0076843750Y0046710000D02*
X0076388750Y0046255000D01*
X0076388750Y0046255000D02*
X0076843750Y0046255000D01*
X0076843750Y0046255000D02*
X0076843750Y0045800000D01*
X0076843750Y0045800000D02*
X0075933750Y0045800000D01*
X0011668000Y0036000000D02*
X0011668000Y0036980000D01*
X0011668000Y0036980000D02*
X0012158000Y0036490000D01*
X0012158000Y0036490000D02*
X0012648000Y0036980000D01*
X0012648000Y0036980000D02*
X0012648000Y0036000000D01*
X0012501000Y0036000000D02*
X0012501000Y0036980000D01*
X0012501000Y0036980000D02*
X0013481000Y0036980000D01*
X0013481000Y0036980000D02*
X0013481000Y0036490000D01*
X0013481000Y0036490000D02*
X0012501000Y0036490000D01*
X0013530000Y0036784000D02*
X0013824000Y0036980000D01*
X0013824000Y0036980000D02*
X0013824000Y0036000000D01*
X0013530000Y0036000000D02*
X0014118000Y0036000000D01*
X0015147000Y0036980000D02*
X0014167000Y0036980000D01*
X0014167000Y0036980000D02*
X0014167000Y0036490000D01*
X0014167000Y0036490000D02*
X0015147000Y0036490000D01*
X0015147000Y0036490000D02*
X0015147000Y0036000000D01*
X0015147000Y0036000000D02*
X0014167000Y0036000000D01*
X0015000000Y0036000000D02*
X0015000000Y0036980000D01*
X0015000000Y0036980000D02*
X0015980000Y0036980000D01*
X0015980000Y0036980000D02*
X0015980000Y0036000000D01*
X0015980000Y0036000000D02*
X0015000000Y0036000000D01*
X0015000000Y0036490000D02*
X0015980000Y0036490000D01*
X0015833000Y0036980000D02*
X0015833000Y0036490000D01*
X0015833000Y0036490000D02*
X0016813000Y0036490000D01*
X0016617000Y0036980000D02*
X0016617000Y0036000000D01*
X0017646000Y0036980000D02*
X0016666000Y0036980000D01*
X0016666000Y0036980000D02*
X0016666000Y0036000000D01*
X0016666000Y0036000000D02*
X0017646000Y0036000000D01*
X0016666000Y0036490000D02*
X0017352000Y0036490000D01*
X0017499000Y0036000000D02*
X0017499000Y0036980000D01*
X0017499000Y0036980000D02*
X0018479000Y0036000000D01*
X0018479000Y0036000000D02*
X0018479000Y0036980000D01*
X0013479250Y0034770000D02*
X0012709250Y0034770000D01*
X0012709250Y0034770000D02*
X0012709250Y0034385000D01*
X0012709250Y0034385000D02*
X0013479250Y0034385000D01*
X0013479250Y0034385000D02*
X0013479250Y0034000000D01*
X0013479250Y0034000000D02*
X0012709250Y0034000000D01*
X0013363750Y0034770000D02*
X0013748750Y0034000000D01*
X0013748750Y0034000000D02*
X0014133750Y0034770000D01*
X0014672750Y0034000000D02*
X0014672750Y0034770000D01*
X0014672750Y0034770000D02*
X0015288750Y0034770000D01*
X0015288750Y0034770000D02*
X0015442750Y0034577500D01*
X0015442750Y0034577500D02*
X0015288750Y0034385000D01*
X0015288750Y0034385000D02*
X0014672750Y0034385000D01*
X0015288750Y0034385000D02*
X0015442750Y0034192500D01*
X0015442750Y0034192500D02*
X0015288750Y0034000000D01*
X0015288750Y0034000000D02*
X0014672750Y0034000000D01*
X0015327250Y0034770000D02*
X0015327250Y0034000000D01*
X0015327250Y0034000000D02*
X0016097250Y0034000000D01*
X0016097250Y0034000000D02*
X0016097250Y0034770000D01*
X0016751750Y0034770000D02*
X0015981750Y0034770000D01*
X0015981750Y0034770000D02*
X0015981750Y0034000000D01*
X0015981750Y0034000000D02*
X0016751750Y0034000000D01*
X0016636250Y0034000000D02*
X0016636250Y0034770000D01*
X0017406250Y0034770000D02*
X0016636250Y0034385000D01*
X0016636250Y0034385000D02*
X0017406250Y0034000000D01*
X0011741500Y0060000000D02*
X0011741500Y0060980000D01*
X0011251500Y0060980000D02*
X0012231500Y0060980000D01*
X0012084500Y0060000000D02*
X0012084500Y0060980000D01*
X0012084500Y0060980000D02*
X0013064500Y0060980000D01*
X0013064500Y0060980000D02*
X0013064500Y0060490000D01*
X0013064500Y0060490000D02*
X0012084500Y0060490000D01*
X0013897500Y0060980000D02*
X0012917500Y0060980000D01*
X0012917500Y0060980000D02*
X0012917500Y0060490000D01*
X0012917500Y0060490000D02*
X0013897500Y0060490000D01*
X0013897500Y0060490000D02*
X0013897500Y0060000000D01*
X0013897500Y0060000000D02*
X0012917500Y0060000000D01*
X0013946500Y0060784000D02*
X0014240500Y0060980000D01*
X0014240500Y0060980000D02*
X0014240500Y0060000000D01*
X0013946500Y0060000000D02*
X0014534500Y0060000000D01*
X0014583500Y0060000000D02*
X0014583500Y0060980000D01*
X0014583500Y0060980000D02*
X0015563500Y0060980000D01*
X0015563500Y0060980000D02*
X0015563500Y0060000000D01*
X0015563500Y0060000000D02*
X0014583500Y0060000000D01*
X0014583500Y0060000000D02*
X0015563500Y0060980000D01*
X0015416500Y0060000000D02*
X0015416500Y0060980000D01*
X0015416500Y0060980000D02*
X0016396500Y0060980000D01*
X0016396500Y0060980000D02*
X0016396500Y0060000000D01*
X0016396500Y0060000000D02*
X0015416500Y0060000000D01*
X0015416500Y0060000000D02*
X0016396500Y0060980000D01*
X0017082500Y0060980000D02*
X0018062500Y0060980000D01*
X0018062500Y0060980000D02*
X0018062500Y0060490000D01*
X0018062500Y0060490000D02*
X0017082500Y0060000000D01*
X0017082500Y0060000000D02*
X0018062500Y0060000000D01*
X0018895500Y0060980000D02*
X0017915500Y0060980000D01*
X0017915500Y0060980000D02*
X0017915500Y0060490000D01*
X0017915500Y0060490000D02*
X0018895500Y0060490000D01*
X0018895500Y0060490000D02*
X0018895500Y0060000000D01*
X0018895500Y0060000000D02*
X0017915500Y0060000000D01*
X0013479250Y0058770000D02*
X0012709250Y0058770000D01*
X0012709250Y0058770000D02*
X0012709250Y0058000000D01*
X0012709250Y0058000000D02*
X0013479250Y0058000000D01*
X0013363750Y0058000000D02*
X0013363750Y0058770000D01*
X0014133750Y0058000000D02*
X0014133750Y0058770000D01*
X0013363750Y0058385000D02*
X0014133750Y0058385000D01*
X0014018250Y0058000000D02*
X0014018250Y0058770000D01*
X0014018250Y0058770000D02*
X0014788250Y0058770000D01*
X0014788250Y0058770000D02*
X0014788250Y0058000000D01*
X0014018250Y0058385000D02*
X0014788250Y0058385000D01*
X0014672750Y0058000000D02*
X0014672750Y0058770000D01*
X0014672750Y0058770000D02*
X0015442750Y0058770000D01*
X0015442750Y0058770000D02*
X0015442750Y0058385000D01*
X0015442750Y0058385000D02*
X0014672750Y0058385000D01*
X0015057750Y0058385000D02*
X0015442750Y0058000000D01*
X0016097250Y0058770000D02*
X0015327250Y0058770000D01*
X0015327250Y0058770000D02*
X0015327250Y0058000000D01*
X0015327250Y0058000000D02*
X0016097250Y0058000000D01*
X0016097250Y0058000000D02*
X0016097250Y0058385000D01*
X0016097250Y0058385000D02*
X0015712250Y0058385000D01*
X0016751750Y0058770000D02*
X0015981750Y0058770000D01*
X0015981750Y0058770000D02*
X0015981750Y0058000000D01*
X0015981750Y0058000000D02*
X0016751750Y0058000000D01*
X0015981750Y0058385000D02*
X0016520750Y0058385000D01*
X0016636250Y0058000000D02*
X0016636250Y0058770000D01*
X0016636250Y0058770000D02*
X0017406250Y0058770000D01*
X0017406250Y0058770000D02*
X0017406250Y0058385000D01*
X0017406250Y0058385000D02*
X0016636250Y0058385000D01*
X0017021250Y0058385000D02*
X0017406250Y0058000000D01*
X0060501000Y0009500000D02*
X0060501000Y0010340000D01*
X0060501000Y0010340000D02*
X0060921000Y0009920000D01*
X0060921000Y0009920000D02*
X0061341000Y0010340000D01*
X0061341000Y0010340000D02*
X0061341000Y0009500000D01*
X0061215000Y0009500000D02*
X0061215000Y0010340000D01*
X0061215000Y0010340000D02*
X0062055000Y0010340000D01*
X0062055000Y0010340000D02*
X0062055000Y0009500000D01*
X0062055000Y0009500000D02*
X0061215000Y0009500000D01*
X0062349000Y0009500000D02*
X0062349000Y0010340000D01*
X0061929000Y0010340000D02*
X0062769000Y0010340000D01*
X0062643000Y0009500000D02*
X0062643000Y0010340000D01*
X0062643000Y0010340000D02*
X0063483000Y0010340000D01*
X0063483000Y0010340000D02*
X0063483000Y0009500000D01*
X0063483000Y0009500000D02*
X0062643000Y0009500000D01*
X0063357000Y0009500000D02*
X0063357000Y0010340000D01*
X0063357000Y0010340000D02*
X0064197000Y0010340000D01*
X0064197000Y0010340000D02*
X0064197000Y0009920000D01*
X0064197000Y0009920000D02*
X0063357000Y0009920000D01*
X0063777000Y0009920000D02*
X0064197000Y0009500000D01*
X0064071000Y0009500000D02*
X0064911000Y0009500000D01*
X0064785000Y0010340000D02*
X0064785000Y0009500000D01*
X0064785000Y0009500000D02*
X0065625000Y0009500000D01*
X0080501000Y0009500000D02*
X0080501000Y0010340000D01*
X0080501000Y0010340000D02*
X0080921000Y0009920000D01*
X0080921000Y0009920000D02*
X0081341000Y0010340000D01*
X0081341000Y0010340000D02*
X0081341000Y0009500000D01*
X0081215000Y0009500000D02*
X0081215000Y0010340000D01*
X0081215000Y0010340000D02*
X0082055000Y0010340000D01*
X0082055000Y0010340000D02*
X0082055000Y0009500000D01*
X0082055000Y0009500000D02*
X0081215000Y0009500000D01*
X0082349000Y0009500000D02*
X0082349000Y0010340000D01*
X0081929000Y0010340000D02*
X0082769000Y0010340000D01*
X0082643000Y0009500000D02*
X0082643000Y0010340000D01*
X0082643000Y0010340000D02*
X0083483000Y0010340000D01*
X0083483000Y0010340000D02*
X0083483000Y0009500000D01*
X0083483000Y0009500000D02*
X0082643000Y0009500000D01*
X0083357000Y0009500000D02*
X0083357000Y0010340000D01*
X0083357000Y0010340000D02*
X0084197000Y0010340000D01*
X0084197000Y0010340000D02*
X0084197000Y0009920000D01*
X0084197000Y0009920000D02*
X0083357000Y0009920000D01*
X0083777000Y0009920000D02*
X0084197000Y0009500000D01*
X0084071000Y0009500000D02*
X0084911000Y0009500000D01*
X0084785000Y0009500000D02*
X0084785000Y0010340000D01*
X0084785000Y0010340000D02*
X0085625000Y0010340000D01*
X0085625000Y0010340000D02*
X0085625000Y0009920000D01*
X0085625000Y0009920000D02*
X0084785000Y0009920000D01*
X0085205000Y0009920000D02*
X0085625000Y0009500000D01*
X0062501000Y0077500000D02*
X0062501000Y0078340000D01*
X0063341000Y0077500000D02*
X0063341000Y0078340000D01*
X0062501000Y0077920000D02*
X0063341000Y0077920000D01*
X0064055000Y0078340000D02*
X0063215000Y0078340000D01*
X0063215000Y0078340000D02*
X0063215000Y0077500000D01*
X0063215000Y0077500000D02*
X0064055000Y0077500000D01*
X0064097000Y0077920000D02*
X0064601000Y0077920000D01*
X0065483000Y0078340000D02*
X0064643000Y0078340000D01*
X0064643000Y0078340000D02*
X0064643000Y0077920000D01*
X0064643000Y0077920000D02*
X0065483000Y0077920000D01*
X0065483000Y0077920000D02*
X0065483000Y0077500000D01*
X0065483000Y0077500000D02*
X0064643000Y0077500000D01*
X0065357000Y0077500000D02*
X0065357000Y0078340000D01*
X0065357000Y0078340000D02*
X0066197000Y0078340000D01*
X0066197000Y0078340000D02*
X0066197000Y0077920000D01*
X0066197000Y0077920000D02*
X0065357000Y0077920000D01*
X0065777000Y0077920000D02*
X0066197000Y0077500000D01*
X0066071000Y0077500000D02*
X0066071000Y0078340000D01*
X0066071000Y0078340000D02*
X0066911000Y0078340000D01*
X0066911000Y0078340000D02*
X0066911000Y0077500000D01*
X0066911000Y0077500000D02*
X0066071000Y0077500000D01*
X0066071000Y0077500000D02*
X0066911000Y0078340000D01*
X0066785000Y0078340000D02*
X0066785000Y0077920000D01*
X0066785000Y0077920000D02*
X0067625000Y0077920000D01*
X0067457000Y0078340000D02*
X0067457000Y0077500000D01*
X0077144000Y0077500000D02*
X0077144000Y0078340000D01*
X0077144000Y0078340000D02*
X0077984000Y0078340000D01*
X0077984000Y0078340000D02*
X0077984000Y0077500000D01*
X0077984000Y0077500000D02*
X0077144000Y0077500000D01*
X0077858000Y0078340000D02*
X0077858000Y0077500000D01*
X0077858000Y0077500000D02*
X0078698000Y0077500000D01*
X0079412000Y0078340000D02*
X0078572000Y0078340000D01*
X0078572000Y0078340000D02*
X0078572000Y0077500000D01*
X0078572000Y0077500000D02*
X0079412000Y0077500000D01*
X0078572000Y0077920000D02*
X0079160000Y0077920000D01*
X0079286000Y0077500000D02*
X0079286000Y0078340000D01*
X0079286000Y0078340000D02*
X0079874000Y0078340000D01*
X0079874000Y0078340000D02*
X0080126000Y0077920000D01*
X0080126000Y0077920000D02*
X0079874000Y0077500000D01*
X0079874000Y0077500000D02*
X0079286000Y0077500000D01*
X0080714000Y0077500000D02*
X0080714000Y0078340000D01*
X0081554000Y0077500000D02*
X0081554000Y0078340000D01*
X0080714000Y0077920000D02*
X0081554000Y0077920000D01*
X0081428000Y0078340000D02*
X0081428000Y0077500000D01*
X0081428000Y0077500000D02*
X0082268000Y0077500000D01*
X0082268000Y0077500000D02*
X0082268000Y0078340000D01*
X0082142000Y0077500000D02*
X0082142000Y0078340000D01*
X0082142000Y0078340000D02*
X0082730000Y0078340000D01*
X0082730000Y0078340000D02*
X0082982000Y0077920000D01*
X0082982000Y0077920000D02*
X0082730000Y0077500000D01*
X0082730000Y0077500000D02*
X0082142000Y0077500000D01*
X0047133750Y0009270000D02*
X0046363750Y0009270000D01*
X0046363750Y0009270000D02*
X0046363750Y0008885000D01*
X0046363750Y0008885000D02*
X0047133750Y0008885000D01*
X0047133750Y0008885000D02*
X0047133750Y0008500000D01*
X0047133750Y0008500000D02*
X0046363750Y0008500000D01*
X0047788250Y0009270000D02*
X0047018250Y0009270000D01*
X0047018250Y0009270000D02*
X0047018250Y0008500000D01*
X0047018250Y0008500000D02*
X0047788250Y0008500000D01*
X0047018250Y0008885000D02*
X0047557250Y0008885000D01*
X0047672750Y0008500000D02*
X0047672750Y0009270000D01*
X0047672750Y0009270000D02*
X0048442750Y0009270000D01*
X0048442750Y0009270000D02*
X0048442750Y0008885000D01*
X0048442750Y0008885000D02*
X0047672750Y0008885000D01*
X0048057750Y0008885000D02*
X0048442750Y0008500000D01*
X0048327250Y0009270000D02*
X0048712250Y0008500000D01*
X0048712250Y0008500000D02*
X0049097250Y0009270000D01*
X0048981750Y0008500000D02*
X0048981750Y0009270000D01*
X0048981750Y0009270000D02*
X0049751750Y0009270000D01*
X0049751750Y0009270000D02*
X0049751750Y0008500000D01*
X0049751750Y0008500000D02*
X0048981750Y0008500000D01*
X0094000000Y0092036500D02*
X0093230000Y0092036500D01*
X0093230000Y0092036500D02*
X0093230000Y0092652500D01*
X0093230000Y0092652500D02*
X0093422500Y0092806500D01*
X0093422500Y0092806500D02*
X0093615000Y0092652500D01*
X0093615000Y0092652500D02*
X0093615000Y0092036500D01*
X0093615000Y0092652500D02*
X0093807500Y0092806500D01*
X0093807500Y0092806500D02*
X0094000000Y0092652500D01*
X0094000000Y0092652500D02*
X0094000000Y0092036500D01*
X0094000000Y0092691000D02*
X0093230000Y0092691000D01*
X0093230000Y0092691000D02*
X0093615000Y0093076000D01*
X0093615000Y0093076000D02*
X0093230000Y0093461000D01*
X0093230000Y0093461000D02*
X0094000000Y0093461000D01*
X0093230000Y0094115500D02*
X0093230000Y0093345500D01*
X0093230000Y0093345500D02*
X0094000000Y0093345500D01*
X0094000000Y0093345500D02*
X0094000000Y0094115500D01*
X0093615000Y0093345500D02*
X0093615000Y0093884500D01*
X0093230000Y0094000000D02*
X0093230000Y0094770000D01*
X0093230000Y0094770000D02*
X0093615000Y0094770000D01*
X0093615000Y0094770000D02*
X0094000000Y0094000000D01*
X0094000000Y0094000000D02*
X0094000000Y0094770000D01*
X0094000000Y0094654500D02*
X0093230000Y0094654500D01*
X0093230000Y0094654500D02*
X0093230000Y0095424500D01*
X0093230000Y0095424500D02*
X0094000000Y0095424500D01*
X0094000000Y0095424500D02*
X0094000000Y0094654500D01*
X0093615000Y0094654500D02*
X0093615000Y0095424500D01*
X0094000000Y0095309000D02*
X0093230000Y0095309000D01*
X0093230000Y0095309000D02*
X0093230000Y0096079000D01*
X0093230000Y0096079000D02*
X0094000000Y0096079000D01*
X0094000000Y0096079000D02*
X0094000000Y0095309000D01*
X0094000000Y0095309000D02*
X0093230000Y0096079000D01*
X0032036500Y0009270000D02*
X0032806500Y0009270000D01*
X0032806500Y0009270000D02*
X0032806500Y0008885000D01*
X0032806500Y0008885000D02*
X0032036500Y0008500000D01*
X0032036500Y0008500000D02*
X0032806500Y0008500000D01*
X0033461000Y0009270000D02*
X0032691000Y0009270000D01*
X0032691000Y0009270000D02*
X0032691000Y0008885000D01*
X0032691000Y0008885000D02*
X0033461000Y0008885000D01*
X0033461000Y0008885000D02*
X0033461000Y0008500000D01*
X0033461000Y0008500000D02*
X0032691000Y0008500000D01*
X0033345500Y0008500000D02*
X0034115500Y0008500000D01*
X0034000000Y0008500000D02*
X0034000000Y0009270000D01*
X0034000000Y0009270000D02*
X0034616000Y0009270000D01*
X0034616000Y0009270000D02*
X0034770000Y0009077500D01*
X0034770000Y0009077500D02*
X0034616000Y0008885000D01*
X0034616000Y0008885000D02*
X0034000000Y0008885000D01*
X0034616000Y0008885000D02*
X0034770000Y0008692500D01*
X0034770000Y0008692500D02*
X0034616000Y0008500000D01*
X0034616000Y0008500000D02*
X0034000000Y0008500000D01*
X0034654500Y0008500000D02*
X0034654500Y0009270000D01*
X0034654500Y0009270000D02*
X0035424500Y0009270000D01*
X0035424500Y0009270000D02*
X0035424500Y0008500000D01*
X0034654500Y0008885000D02*
X0035424500Y0008885000D01*
X0035694000Y0008500000D02*
X0035694000Y0009270000D01*
X0035309000Y0009270000D02*
X0036079000Y0009270000D01*
X0013363750Y0008500000D02*
X0013363750Y0009270000D01*
X0013363750Y0009270000D02*
X0013902750Y0009270000D01*
X0013902750Y0009270000D02*
X0014133750Y0008885000D01*
X0014133750Y0008885000D02*
X0013902750Y0008500000D01*
X0013902750Y0008500000D02*
X0013363750Y0008500000D01*
X0014788250Y0009270000D02*
X0014018250Y0009270000D01*
X0014018250Y0009270000D02*
X0014018250Y0008500000D01*
X0014018250Y0008500000D02*
X0014788250Y0008500000D01*
X0014672750Y0008500000D02*
X0015442750Y0008500000D01*
X0015712250Y0008500000D02*
X0015712250Y0009270000D01*
X0015481250Y0009270000D02*
X0015943250Y0009270000D01*
X0015481250Y0008500000D02*
X0015943250Y0008500000D01*
X0015981750Y0008500000D02*
X0015981750Y0009270000D01*
X0015981750Y0009270000D02*
X0016751750Y0008500000D01*
X0016751750Y0008500000D02*
X0016751750Y0009270000D01*
X0040036500Y0017000000D02*
X0040036500Y0017770000D01*
X0040036500Y0017770000D02*
X0040806500Y0017770000D01*
X0040806500Y0017770000D02*
X0040806500Y0017385000D01*
X0040806500Y0017385000D02*
X0040036500Y0017385000D01*
X0040691000Y0017770000D02*
X0040845000Y0017000000D01*
X0040845000Y0017000000D02*
X0041076000Y0017462000D01*
X0041076000Y0017462000D02*
X0041307000Y0017000000D01*
X0041307000Y0017000000D02*
X0041461000Y0017770000D01*
X0041345500Y0017000000D02*
X0041345500Y0017770000D01*
X0041345500Y0017770000D02*
X0042115500Y0017770000D01*
X0042115500Y0017770000D02*
X0042115500Y0017385000D01*
X0042115500Y0017385000D02*
X0041345500Y0017385000D01*
X0041730500Y0017385000D02*
X0042115500Y0017000000D01*
X0042000000Y0017000000D02*
X0042770000Y0017000000D01*
X0043424500Y0017770000D02*
X0042654500Y0017770000D01*
X0042654500Y0017770000D02*
X0042654500Y0017385000D01*
X0042654500Y0017385000D02*
X0043424500Y0017385000D01*
X0043424500Y0017385000D02*
X0043424500Y0017000000D01*
X0043424500Y0017000000D02*
X0042654500Y0017000000D01*
X0043309000Y0017770000D02*
X0043463000Y0017000000D01*
X0043463000Y0017000000D02*
X0043694000Y0017462000D01*
X0043694000Y0017462000D02*
X0043925000Y0017000000D01*
X0043925000Y0017000000D02*
X0044079000Y0017770000D01*
X0072320000Y0029700000D02*
X0071620000Y0029700000D01*
X0071620000Y0029700000D02*
X0071620000Y0029000000D01*
X0071620000Y0029000000D02*
X0072320000Y0029000000D01*
X0072355000Y0029560000D02*
X0072565000Y0029700000D01*
X0072565000Y0029700000D02*
X0072565000Y0029000000D01*
X0072355000Y0029000000D02*
X0072775000Y0029000000D01*
X0073545000Y0029560000D02*
X0073755000Y0029700000D01*
X0073755000Y0029700000D02*
X0073755000Y0029000000D01*
X0073545000Y0029000000D02*
X0073965000Y0029000000D01*
X0074000000Y0029000000D02*
X0074000000Y0029700000D01*
X0074000000Y0029700000D02*
X0074700000Y0029700000D01*
X0074700000Y0029700000D02*
X0074700000Y0029000000D01*
X0074700000Y0029000000D02*
X0074000000Y0029000000D01*
X0074000000Y0029000000D02*
X0074700000Y0029700000D01*
X0074595000Y0029000000D02*
X0074595000Y0029700000D01*
X0074595000Y0029700000D02*
X0075295000Y0029700000D01*
X0075295000Y0029700000D02*
X0075295000Y0029000000D01*
X0075295000Y0029000000D02*
X0074595000Y0029000000D01*
X0074595000Y0029000000D02*
X0075295000Y0029700000D01*
X0075190000Y0029700000D02*
X0075190000Y0029000000D01*
X0075190000Y0029000000D02*
X0075890000Y0029000000D01*
X0075890000Y0029000000D02*
X0075890000Y0029700000D01*
X0075785000Y0029000000D02*
X0075785000Y0029700000D01*
X0075785000Y0029700000D02*
X0076485000Y0029700000D01*
X0075785000Y0029350000D02*
X0076275000Y0029350000D01*
X0074094500Y0034230000D02*
X0073464500Y0034230000D01*
X0073464500Y0034230000D02*
X0073464500Y0033600000D01*
X0073464500Y0033600000D02*
X0074094500Y0033600000D01*
X0074000000Y0034230000D02*
X0074630000Y0034230000D01*
X0074630000Y0034230000D02*
X0074630000Y0033915000D01*
X0074630000Y0033915000D02*
X0074000000Y0033600000D01*
X0074000000Y0033600000D02*
X0074630000Y0033600000D01*
X0011594500Y0050230000D02*
X0010964500Y0050230000D01*
X0010964500Y0050230000D02*
X0010964500Y0049600000D01*
X0010964500Y0049600000D02*
X0011594500Y0049600000D01*
X0011500000Y0050230000D02*
X0012130000Y0050230000D01*
X0012130000Y0050230000D02*
X0011815000Y0049915000D01*
X0011815000Y0049915000D02*
X0012130000Y0049915000D01*
X0012130000Y0049915000D02*
X0012130000Y0049600000D01*
X0012130000Y0049600000D02*
X0011500000Y0049600000D01*
X0079594500Y0044055000D02*
X0078964500Y0044055000D01*
X0078964500Y0044055000D02*
X0078964500Y0043425000D01*
X0078964500Y0043425000D02*
X0079594500Y0043425000D01*
X0079500000Y0044055000D02*
X0079500000Y0043740000D01*
X0079500000Y0043740000D02*
X0080130000Y0043740000D01*
X0080004000Y0044055000D02*
X0080004000Y0043425000D01*
X0026094500Y0018055000D02*
X0025464500Y0018055000D01*
X0025464500Y0018055000D02*
X0025464500Y0017425000D01*
X0025464500Y0017425000D02*
X0026094500Y0017425000D01*
X0026630000Y0018055000D02*
X0026000000Y0018055000D01*
X0026000000Y0018055000D02*
X0026000000Y0017740000D01*
X0026000000Y0017740000D02*
X0026630000Y0017740000D01*
X0026630000Y0017740000D02*
X0026630000Y0017425000D01*
X0026630000Y0017425000D02*
X0026000000Y0017425000D01*
X0083464500Y0068425000D02*
X0083464500Y0069055000D01*
X0083464500Y0069055000D02*
X0084094500Y0069055000D01*
X0084094500Y0069055000D02*
X0084094500Y0068740000D01*
X0084094500Y0068740000D02*
X0083464500Y0068740000D01*
X0083779500Y0068740000D02*
X0084094500Y0068425000D01*
X0084126000Y0068929000D02*
X0084315000Y0069055000D01*
X0084315000Y0069055000D02*
X0084315000Y0068425000D01*
X0084126000Y0068425000D02*
X0084504000Y0068425000D01*
X0083464500Y0065425000D02*
X0083464500Y0066055000D01*
X0083464500Y0066055000D02*
X0084094500Y0066055000D01*
X0084094500Y0066055000D02*
X0084094500Y0065740000D01*
X0084094500Y0065740000D02*
X0083464500Y0065740000D01*
X0083779500Y0065740000D02*
X0084094500Y0065425000D01*
X0084000000Y0066055000D02*
X0084630000Y0066055000D01*
X0084630000Y0066055000D02*
X0084630000Y0065740000D01*
X0084630000Y0065740000D02*
X0084000000Y0065425000D01*
X0084000000Y0065425000D02*
X0084630000Y0065425000D01*
X0047464500Y0029425000D02*
X0047464500Y0030055000D01*
X0047464500Y0030055000D02*
X0048094500Y0030055000D01*
X0048094500Y0030055000D02*
X0048094500Y0029740000D01*
X0048094500Y0029740000D02*
X0047464500Y0029740000D01*
X0047779500Y0029740000D02*
X0048094500Y0029425000D01*
X0048000000Y0030055000D02*
X0048630000Y0030055000D01*
X0048630000Y0030055000D02*
X0048315000Y0029740000D01*
X0048315000Y0029740000D02*
X0048630000Y0029740000D01*
X0048630000Y0029740000D02*
X0048630000Y0029425000D01*
X0048630000Y0029425000D02*
X0048000000Y0029425000D01*
X0047464500Y0026425000D02*
X0047464500Y0027055000D01*
X0047464500Y0027055000D02*
X0048094500Y0027055000D01*
X0048094500Y0027055000D02*
X0048094500Y0026740000D01*
X0048094500Y0026740000D02*
X0047464500Y0026740000D01*
X0047779500Y0026740000D02*
X0048094500Y0026425000D01*
X0048000000Y0027055000D02*
X0048000000Y0026740000D01*
X0048000000Y0026740000D02*
X0048630000Y0026740000D01*
X0048504000Y0027055000D02*
X0048504000Y0026425000D01*
X0021464500Y0017425000D02*
X0021464500Y0018055000D01*
X0021464500Y0018055000D02*
X0022094500Y0018055000D01*
X0022094500Y0018055000D02*
X0022094500Y0017740000D01*
X0022094500Y0017740000D02*
X0021464500Y0017740000D01*
X0021779500Y0017740000D02*
X0022094500Y0017425000D01*
X0022630000Y0018055000D02*
X0022000000Y0018055000D01*
X0022000000Y0018055000D02*
X0022000000Y0017740000D01*
X0022000000Y0017740000D02*
X0022630000Y0017740000D01*
X0022630000Y0017740000D02*
X0022630000Y0017425000D01*
X0022630000Y0017425000D02*
X0022000000Y0017425000D01*
X0021464500Y0014425000D02*
X0021464500Y0015055000D01*
X0021464500Y0015055000D02*
X0021905500Y0015055000D01*
X0021905500Y0015055000D02*
X0022094500Y0014740000D01*
X0022094500Y0014740000D02*
X0021905500Y0014425000D01*
X0021905500Y0014425000D02*
X0021464500Y0014425000D01*
X0022126000Y0014929000D02*
X0022315000Y0015055000D01*
X0022315000Y0015055000D02*
X0022315000Y0014425000D01*
X0022126000Y0014425000D02*
X0022504000Y0014425000D01*
X0021196750Y0010500000D02*
X0021196750Y0011130000D01*
X0021196750Y0011130000D02*
X0021826750Y0011130000D01*
X0021826750Y0011130000D02*
X0021826750Y0010815000D01*
X0021826750Y0010815000D02*
X0021196750Y0010815000D01*
X0021732250Y0011130000D02*
X0021858250Y0010500000D01*
X0021858250Y0010500000D02*
X0022047250Y0010878000D01*
X0022047250Y0010878000D02*
X0022236250Y0010500000D01*
X0022236250Y0010500000D02*
X0022362250Y0011130000D01*
X0022267750Y0010500000D02*
X0022267750Y0011130000D01*
X0022267750Y0011130000D02*
X0022897750Y0011130000D01*
X0022897750Y0011130000D02*
X0022897750Y0010815000D01*
X0022897750Y0010815000D02*
X0022267750Y0010815000D01*
X0022582750Y0010815000D02*
X0022897750Y0010500000D01*
X0025464500Y0014425000D02*
X0025464500Y0015055000D01*
X0025464500Y0015055000D02*
X0026094500Y0015055000D01*
X0026094500Y0015055000D02*
X0026094500Y0014740000D01*
X0026094500Y0014740000D02*
X0025464500Y0014740000D01*
X0025779500Y0014740000D02*
X0026094500Y0014425000D01*
X0026630000Y0015055000D02*
X0026000000Y0015055000D01*
X0026000000Y0015055000D02*
X0026000000Y0014425000D01*
X0026000000Y0014425000D02*
X0026630000Y0014425000D01*
X0026630000Y0014425000D02*
X0026630000Y0014740000D01*
X0026630000Y0014740000D02*
X0026000000Y0014740000D01*
X0025464500Y0011925000D02*
X0025464500Y0012555000D01*
X0025464500Y0012555000D02*
X0025905500Y0012555000D01*
X0025905500Y0012555000D02*
X0026094500Y0012240000D01*
X0026094500Y0012240000D02*
X0025905500Y0011925000D01*
X0025905500Y0011925000D02*
X0025464500Y0011925000D01*
X0026000000Y0012555000D02*
X0026630000Y0012555000D01*
X0026630000Y0012555000D02*
X0026630000Y0012240000D01*
X0026630000Y0012240000D02*
X0026000000Y0011925000D01*
X0026000000Y0011925000D02*
X0026630000Y0011925000D01*
X0025559000Y0009130000D02*
X0024929000Y0009130000D01*
X0024929000Y0009130000D02*
X0024929000Y0008815000D01*
X0024929000Y0008815000D02*
X0025559000Y0008815000D01*
X0025559000Y0008815000D02*
X0025559000Y0008500000D01*
X0025559000Y0008500000D02*
X0024929000Y0008500000D01*
X0025779500Y0008500000D02*
X0025779500Y0009130000D01*
X0025464500Y0009130000D02*
X0026094500Y0009130000D01*
X0026000000Y0008500000D02*
X0026000000Y0009130000D01*
X0026000000Y0009130000D02*
X0026630000Y0009130000D01*
X0026630000Y0009130000D02*
X0026630000Y0008500000D01*
X0026000000Y0008815000D02*
X0026630000Y0008815000D01*
X0026850500Y0008500000D02*
X0026850500Y0009130000D01*
X0026535500Y0009130000D02*
X0027165500Y0009130000D01*
X0053810000Y0006200000D02*
X0053810000Y0005500000D01*
X0053810000Y0005500000D02*
X0054510000Y0005500000D01*
X0054510000Y0005500000D02*
X0054510000Y0006200000D01*
X0054405000Y0005500000D02*
X0054405000Y0006200000D01*
X0054405000Y0006200000D02*
X0055105000Y0006200000D01*
X0055105000Y0006200000D02*
X0055105000Y0005500000D01*
X0054405000Y0005850000D02*
X0055105000Y0005850000D01*
X0055000000Y0005500000D02*
X0055000000Y0006200000D01*
X0055000000Y0006200000D02*
X0055700000Y0006200000D01*
X0055700000Y0006200000D02*
X0055700000Y0005850000D01*
X0055700000Y0005850000D02*
X0055000000Y0005850000D01*
X0055350000Y0005850000D02*
X0055700000Y0005500000D01*
X0055945000Y0005500000D02*
X0055945000Y0006200000D01*
X0055595000Y0006200000D02*
X0056295000Y0006200000D01*
X0022464500Y0023965000D02*
X0022464500Y0024595000D01*
X0022464500Y0024595000D02*
X0023094500Y0024595000D01*
X0023094500Y0024595000D02*
X0023094500Y0024280000D01*
X0023094500Y0024280000D02*
X0022464500Y0024280000D01*
X0022779500Y0024280000D02*
X0023094500Y0023965000D01*
X0023000000Y0024595000D02*
X0023630000Y0024595000D01*
X0023630000Y0024595000D02*
X0023189000Y0023965000D01*
X0053964500Y0054445000D02*
X0053964500Y0055075000D01*
X0053964500Y0055075000D02*
X0054594500Y0055075000D01*
X0054594500Y0055075000D02*
X0054594500Y0054760000D01*
X0054594500Y0054760000D02*
X0053964500Y0054760000D01*
X0054279500Y0054760000D02*
X0054594500Y0054445000D01*
X0054500000Y0054445000D02*
X0054500000Y0055075000D01*
X0054500000Y0055075000D02*
X0055130000Y0055075000D01*
X0055130000Y0055075000D02*
X0055130000Y0054445000D01*
X0055130000Y0054445000D02*
X0054500000Y0054445000D01*
X0054500000Y0054760000D02*
X0055130000Y0054760000D01*
X0039395000Y0003500000D02*
X0039395000Y0004900000D01*
X0038695000Y0004900000D02*
X0040095000Y0004900000D01*
X0041285000Y0004900000D02*
X0039885000Y0004900000D01*
X0039885000Y0004900000D02*
X0039885000Y0003500000D01*
X0039885000Y0003500000D02*
X0041285000Y0003500000D01*
X0039885000Y0004200000D02*
X0040865000Y0004200000D01*
X0041075000Y0003500000D02*
X0041075000Y0004900000D01*
X0041075000Y0004900000D02*
X0042475000Y0004900000D01*
X0042475000Y0004900000D02*
X0042475000Y0004200000D01*
X0042475000Y0004200000D02*
X0041075000Y0004200000D01*
X0041775000Y0004200000D02*
X0042475000Y0003500000D01*
X0042265000Y0003500000D02*
X0042265000Y0004900000D01*
X0042265000Y0004900000D02*
X0043665000Y0004900000D01*
X0043665000Y0004900000D02*
X0043665000Y0004200000D01*
X0043665000Y0004200000D02*
X0042265000Y0004200000D01*
X0042965000Y0004200000D02*
X0043665000Y0003500000D01*
X0043455000Y0003500000D02*
X0043455000Y0004900000D01*
X0043455000Y0004900000D02*
X0044855000Y0004900000D01*
X0044855000Y0004900000D02*
X0044855000Y0003500000D01*
X0043455000Y0004200000D02*
X0044855000Y0004200000D01*
X0046045000Y0004900000D02*
X0044645000Y0004900000D01*
X0044645000Y0004900000D02*
X0044645000Y0004200000D01*
X0044645000Y0004200000D02*
X0046045000Y0004200000D01*
X0046045000Y0004200000D02*
X0046045000Y0003500000D01*
X0046045000Y0003500000D02*
X0044645000Y0003500000D01*
X0047235000Y0004900000D02*
X0045835000Y0004900000D01*
X0045835000Y0004900000D02*
X0045835000Y0003500000D01*
X0045835000Y0003500000D02*
X0047235000Y0003500000D01*
X0047025000Y0003500000D02*
X0047025000Y0004900000D01*
X0047025000Y0004900000D02*
X0048425000Y0004900000D01*
X0048425000Y0004900000D02*
X0048425000Y0003500000D01*
X0048425000Y0003500000D02*
X0047025000Y0003500000D01*
X0048215000Y0004900000D02*
X0048215000Y0003500000D01*
X0048215000Y0003500000D02*
X0049615000Y0003500000D01*
X0049615000Y0003500000D02*
X0049615000Y0004900000D01*
X0050105000Y0003500000D02*
X0050105000Y0004900000D01*
X0049405000Y0004900000D02*
X0050805000Y0004900000D01*
X0053185000Y0004900000D02*
X0051785000Y0004900000D01*
X0051785000Y0004900000D02*
X0051785000Y0003500000D01*
X0051785000Y0003500000D02*
X0053185000Y0003500000D01*
X0053185000Y0003500000D02*
X0053185000Y0004200000D01*
X0053185000Y0004200000D02*
X0052485000Y0004200000D01*
X0052975000Y0003500000D02*
X0052975000Y0004900000D01*
X0052975000Y0004900000D02*
X0054375000Y0004900000D01*
X0054375000Y0004900000D02*
X0054375000Y0004200000D01*
X0054375000Y0004200000D02*
X0052975000Y0004200000D01*
X0053675000Y0004200000D02*
X0054375000Y0003500000D01*
X0054165000Y0003500000D02*
X0054165000Y0004900000D01*
X0054165000Y0004900000D02*
X0055565000Y0004900000D01*
X0055565000Y0004900000D02*
X0055565000Y0003500000D01*
X0055565000Y0003500000D02*
X0054165000Y0003500000D01*
X0055355000Y0004900000D02*
X0055355000Y0003500000D01*
X0055355000Y0003500000D02*
X0056755000Y0003500000D01*
X0056755000Y0003500000D02*
X0056755000Y0004900000D01*
X0056545000Y0003500000D02*
X0056545000Y0004900000D01*
X0056545000Y0004900000D02*
X0057945000Y0003500000D01*
X0057945000Y0003500000D02*
X0057945000Y0004900000D01*
X0057735000Y0003500000D02*
X0057735000Y0004900000D01*
X0057735000Y0004900000D02*
X0058715000Y0004900000D01*
X0058715000Y0004900000D02*
X0059135000Y0004200000D01*
X0059135000Y0004200000D02*
X0058715000Y0003500000D01*
X0058715000Y0003500000D02*
X0057735000Y0003500000D01*
X0060325000Y0004900000D02*
X0058925000Y0004900000D01*
X0058925000Y0004900000D02*
X0058925000Y0003500000D01*
X0058925000Y0003500000D02*
X0060325000Y0003500000D01*
X0058925000Y0004200000D02*
X0059905000Y0004200000D01*
X0060115000Y0003500000D02*
X0060115000Y0004900000D01*
X0060115000Y0004900000D02*
X0061095000Y0004900000D01*
X0061095000Y0004900000D02*
X0061515000Y0004200000D01*
X0061515000Y0004200000D02*
X0061095000Y0003500000D01*
X0061095000Y0003500000D02*
X0060115000Y0003500000D01*
X0038100000Y0001800000D02*
X0038100000Y0002500000D01*
X0038100000Y0002500000D02*
X0038800000Y0002500000D01*
X0038800000Y0002500000D02*
X0038800000Y0001800000D01*
X0038100000Y0002150000D02*
X0038800000Y0002150000D01*
X0038695000Y0002500000D02*
X0038695000Y0001800000D01*
X0038695000Y0001800000D02*
X0039395000Y0001800000D01*
X0039395000Y0001800000D02*
X0039395000Y0002500000D01*
X0039640000Y0001800000D02*
X0039640000Y0002500000D01*
X0039290000Y0002500000D02*
X0039990000Y0002500000D01*
X0039885000Y0001800000D02*
X0039885000Y0002500000D01*
X0039885000Y0002500000D02*
X0040585000Y0002500000D01*
X0040585000Y0002500000D02*
X0040585000Y0001800000D01*
X0040585000Y0001800000D02*
X0039885000Y0001800000D01*
X0040480000Y0001800000D02*
X0040480000Y0002500000D01*
X0040480000Y0002500000D02*
X0041180000Y0001800000D01*
X0041180000Y0001800000D02*
X0041180000Y0002500000D01*
X0041075000Y0001800000D02*
X0041075000Y0002500000D01*
X0041075000Y0002500000D02*
X0041775000Y0002500000D01*
X0041775000Y0002500000D02*
X0041775000Y0001800000D01*
X0041775000Y0001800000D02*
X0041075000Y0001800000D01*
X0041670000Y0001800000D02*
X0041670000Y0002500000D01*
X0041670000Y0002500000D02*
X0042020000Y0002150000D01*
X0042020000Y0002150000D02*
X0042370000Y0002500000D01*
X0042370000Y0002500000D02*
X0042370000Y0001800000D01*
X0042265000Y0001800000D02*
X0042265000Y0002500000D01*
X0042265000Y0002500000D02*
X0042965000Y0002500000D01*
X0042965000Y0002500000D02*
X0042965000Y0001800000D01*
X0042965000Y0001800000D02*
X0042265000Y0001800000D01*
X0042860000Y0002500000D02*
X0042860000Y0001800000D01*
X0042860000Y0001800000D02*
X0043560000Y0001800000D01*
X0043560000Y0001800000D02*
X0043560000Y0002500000D01*
X0044155000Y0002500000D02*
X0043455000Y0002500000D01*
X0043455000Y0002500000D02*
X0043455000Y0002150000D01*
X0043455000Y0002150000D02*
X0044155000Y0002150000D01*
X0044155000Y0002150000D02*
X0044155000Y0001800000D01*
X0044155000Y0001800000D02*
X0043455000Y0001800000D01*
X0044995000Y0001800000D02*
X0044995000Y0002500000D01*
X0044645000Y0002500000D02*
X0045345000Y0002500000D01*
X0045940000Y0002500000D02*
X0045240000Y0002500000D01*
X0045240000Y0002500000D02*
X0045240000Y0001800000D01*
X0045240000Y0001800000D02*
X0045940000Y0001800000D01*
X0045240000Y0002150000D02*
X0045730000Y0002150000D01*
X0045835000Y0002500000D02*
X0045835000Y0001800000D01*
X0045835000Y0001800000D02*
X0046535000Y0001800000D01*
X0047130000Y0002500000D02*
X0046430000Y0002500000D01*
X0046430000Y0002500000D02*
X0046430000Y0001800000D01*
X0046430000Y0001800000D02*
X0047130000Y0001800000D01*
X0046430000Y0002150000D02*
X0046920000Y0002150000D01*
X0047025000Y0001800000D02*
X0047025000Y0002500000D01*
X0047025000Y0002500000D02*
X0047375000Y0002150000D01*
X0047375000Y0002150000D02*
X0047725000Y0002500000D01*
X0047725000Y0002500000D02*
X0047725000Y0001800000D01*
X0048320000Y0002500000D02*
X0047620000Y0002500000D01*
X0047620000Y0002500000D02*
X0047620000Y0001800000D01*
X0047620000Y0001800000D02*
X0048320000Y0001800000D01*
X0047620000Y0002150000D02*
X0048110000Y0002150000D01*
X0048565000Y0001800000D02*
X0048565000Y0002500000D01*
X0048215000Y0002500000D02*
X0048915000Y0002500000D01*
X0048810000Y0001800000D02*
X0048810000Y0002500000D01*
X0048810000Y0002500000D02*
X0049510000Y0002500000D01*
X0049510000Y0002500000D02*
X0049510000Y0002150000D01*
X0049510000Y0002150000D02*
X0048810000Y0002150000D01*
X0049160000Y0002150000D02*
X0049510000Y0001800000D01*
X0049405000Y0002500000D02*
X0049755000Y0002150000D01*
X0050105000Y0002500000D02*
X0049755000Y0002150000D01*
X0049755000Y0002150000D02*
X0049755000Y0001800000D01*
X0050595000Y0001800000D02*
X0050595000Y0002500000D01*
X0050595000Y0002500000D02*
X0051295000Y0002500000D01*
X0051295000Y0002500000D02*
X0051295000Y0002150000D01*
X0051295000Y0002150000D02*
X0050595000Y0002150000D01*
X0050945000Y0002150000D02*
X0051295000Y0001800000D01*
X0051190000Y0001800000D02*
X0051190000Y0002500000D01*
X0051190000Y0002500000D02*
X0051890000Y0002500000D01*
X0051890000Y0002500000D02*
X0051890000Y0001800000D01*
X0051890000Y0001800000D02*
X0051190000Y0001800000D01*
X0051785000Y0002500000D02*
X0052135000Y0001800000D01*
X0052135000Y0001800000D02*
X0052485000Y0002500000D01*
X0053080000Y0002500000D02*
X0052380000Y0002500000D01*
X0052380000Y0002500000D02*
X0052380000Y0001800000D01*
X0052380000Y0001800000D02*
X0053080000Y0001800000D01*
X0052380000Y0002150000D02*
X0052870000Y0002150000D01*
X0052975000Y0001800000D02*
X0052975000Y0002500000D01*
X0052975000Y0002500000D02*
X0053675000Y0002500000D01*
X0053675000Y0002500000D02*
X0053675000Y0002150000D01*
X0053675000Y0002150000D02*
X0052975000Y0002150000D01*
X0053325000Y0002150000D02*
X0053675000Y0001800000D01*
X0054305000Y0002150000D02*
X0054725000Y0002150000D01*
X0055355000Y0001800000D02*
X0055355000Y0002500000D01*
X0055355000Y0002500000D02*
X0056055000Y0002500000D01*
X0056055000Y0002500000D02*
X0056055000Y0002150000D01*
X0056055000Y0002150000D02*
X0055355000Y0002150000D01*
X0056650000Y0002500000D02*
X0055950000Y0002500000D01*
X0055950000Y0002500000D02*
X0055950000Y0001800000D01*
X0055950000Y0001800000D02*
X0056650000Y0001800000D01*
X0056545000Y0001800000D02*
X0056545000Y0002500000D01*
X0056545000Y0002500000D02*
X0057105000Y0002500000D01*
X0057105000Y0002500000D02*
X0057245000Y0002325000D01*
X0057245000Y0002325000D02*
X0057105000Y0002150000D01*
X0057105000Y0002150000D02*
X0056545000Y0002150000D01*
X0057105000Y0002150000D02*
X0057245000Y0001975000D01*
X0057245000Y0001975000D02*
X0057105000Y0001800000D01*
X0057105000Y0001800000D02*
X0056545000Y0001800000D01*
X0057735000Y0001800000D02*
X0057735000Y0002500000D01*
X0057735000Y0002500000D02*
X0058435000Y0002500000D01*
X0058435000Y0002500000D02*
X0058435000Y0002150000D01*
X0058435000Y0002150000D02*
X0057735000Y0002150000D01*
X0058085000Y0002150000D02*
X0058435000Y0001800000D01*
X0059030000Y0002500000D02*
X0058330000Y0002500000D01*
X0058330000Y0002500000D02*
X0058330000Y0001800000D01*
X0058330000Y0001800000D02*
X0059030000Y0001800000D01*
X0058330000Y0002150000D02*
X0058820000Y0002150000D01*
X0058925000Y0002500000D02*
X0059275000Y0001800000D01*
X0059275000Y0001800000D02*
X0059625000Y0002500000D01*
X0060255000Y0002360000D02*
X0060465000Y0002500000D01*
X0060465000Y0002500000D02*
X0060465000Y0001800000D01*
X0060255000Y0001800000D02*
X0060675000Y0001800000D01*
X0060990000Y0001800000D02*
X0061130000Y0001800000D01*
X0061305000Y0001800000D02*
X0061305000Y0002500000D01*
X0061305000Y0002500000D02*
X0062005000Y0002500000D01*
X0062005000Y0002500000D02*
X0062005000Y0001800000D01*
X0062005000Y0001800000D02*
X0061305000Y0001800000D01*
X0061305000Y0001800000D02*
X0062005000Y0002500000D01*
X0008000000Y0002109500D02*
X0007230000Y0002109500D01*
X0008000000Y0002879500D02*
X0007230000Y0002879500D01*
X0007615000Y0002109500D02*
X0007615000Y0002879500D01*
X0008000000Y0002764000D02*
X0007230000Y0002764000D01*
X0007230000Y0002764000D02*
X0007230000Y0003534000D01*
X0007230000Y0003534000D02*
X0008000000Y0003534000D01*
X0007615000Y0002764000D02*
X0007615000Y0003534000D01*
X0007230000Y0004188500D02*
X0007230000Y0003418500D01*
X0007230000Y0003418500D02*
X0008000000Y0003418500D01*
X0008000000Y0003418500D02*
X0008000000Y0004188500D01*
X0008000000Y0004073000D02*
X0007230000Y0004073000D01*
X0007230000Y0004843000D02*
X0007615000Y0004073000D01*
X0007615000Y0004073000D02*
X0008000000Y0004843000D01*
X0007230000Y0006152000D02*
X0007230000Y0005382000D01*
X0007230000Y0005382000D02*
X0008000000Y0005382000D01*
X0008000000Y0005382000D02*
X0008000000Y0006152000D01*
X0007230000Y0006036500D02*
X0008000000Y0006036500D01*
X0008000000Y0006036500D02*
X0008000000Y0006806500D01*
X0007230000Y0006691000D02*
X0008000000Y0006691000D01*
X0008000000Y0006691000D02*
X0008000000Y0007461000D01*
X0008000000Y0007461000D02*
X0007230000Y0007461000D01*
X0008000000Y0007345500D02*
X0007230000Y0007345500D01*
X0007230000Y0007345500D02*
X0007230000Y0007961500D01*
X0007230000Y0007961500D02*
X0007422500Y0008115500D01*
X0007422500Y0008115500D02*
X0007615000Y0007961500D01*
X0007615000Y0007961500D02*
X0007615000Y0007345500D01*
X0007615000Y0007961500D02*
X0007807500Y0008115500D01*
X0007807500Y0008115500D02*
X0008000000Y0007961500D01*
X0008000000Y0007961500D02*
X0008000000Y0007345500D01*
X0007230000Y0009424500D02*
X0007230000Y0008654500D01*
X0007230000Y0008654500D02*
X0008000000Y0008654500D01*
X0008000000Y0008654500D02*
X0008000000Y0009424500D01*
X0008000000Y0009424500D02*
X0007615000Y0009424500D01*
X0007615000Y0009424500D02*
X0007615000Y0009039500D01*
X0008000000Y0009309000D02*
X0007230000Y0009309000D01*
X0007230000Y0009309000D02*
X0007230000Y0010079000D01*
X0007230000Y0010079000D02*
X0007615000Y0010079000D01*
X0007615000Y0010079000D02*
X0007615000Y0009309000D01*
X0007615000Y0009694000D02*
X0008000000Y0010079000D01*
X0008000000Y0009963500D02*
X0007230000Y0009963500D01*
X0007230000Y0009963500D02*
X0007230000Y0010733500D01*
X0007230000Y0010733500D02*
X0008000000Y0010733500D01*
X0008000000Y0010733500D02*
X0008000000Y0009963500D01*
X0007230000Y0010618000D02*
X0008000000Y0010618000D01*
X0008000000Y0010618000D02*
X0008000000Y0011388000D01*
X0008000000Y0011388000D02*
X0007230000Y0011388000D01*
X0008000000Y0011272500D02*
X0007230000Y0011272500D01*
X0007230000Y0011272500D02*
X0008000000Y0012042500D01*
X0008000000Y0012042500D02*
X0007230000Y0012042500D01*
X0008000000Y0011927000D02*
X0007230000Y0011927000D01*
X0007230000Y0011927000D02*
X0007230000Y0012466000D01*
X0007230000Y0012466000D02*
X0007615000Y0012697000D01*
X0007615000Y0012697000D02*
X0008000000Y0012466000D01*
X0008000000Y0012466000D02*
X0008000000Y0011927000D01*
X0007230000Y0013351500D02*
X0007230000Y0012581500D01*
X0007230000Y0012581500D02*
X0008000000Y0012581500D01*
X0008000000Y0012581500D02*
X0008000000Y0013351500D01*
X0007615000Y0012581500D02*
X0007615000Y0013120500D01*
X0008000000Y0013236000D02*
X0007230000Y0013236000D01*
X0007230000Y0013236000D02*
X0007230000Y0013775000D01*
X0007230000Y0013775000D02*
X0007615000Y0014006000D01*
X0007615000Y0014006000D02*
X0008000000Y0013775000D01*
X0008000000Y0013775000D02*
X0008000000Y0013236000D01*
X0091230000Y0086552250D02*
X0091230000Y0085782250D01*
X0091230000Y0085782250D02*
X0092000000Y0085782250D01*
X0092000000Y0085782250D02*
X0092000000Y0086552250D01*
X0091230000Y0087206750D02*
X0091230000Y0086436750D01*
X0091230000Y0086436750D02*
X0092000000Y0086436750D01*
X0092000000Y0086436750D02*
X0092000000Y0087206750D01*
X0091615000Y0086436750D02*
X0091615000Y0086975750D01*
X0092000000Y0087091250D02*
X0091230000Y0087091250D01*
X0091230000Y0087091250D02*
X0091230000Y0087861250D01*
X0091230000Y0087861250D02*
X0091615000Y0087861250D01*
X0091615000Y0087861250D02*
X0091615000Y0087091250D01*
X0091615000Y0087476250D02*
X0092000000Y0087861250D01*
X0092000000Y0087745750D02*
X0091230000Y0087745750D01*
X0091230000Y0087745750D02*
X0092000000Y0088515750D01*
X0092000000Y0088515750D02*
X0091230000Y0088515750D01*
X0091615000Y0088554250D02*
X0091615000Y0089016250D01*
X0092000000Y0089054750D02*
X0091230000Y0089054750D01*
X0091230000Y0089054750D02*
X0091230000Y0089824750D01*
X0091230000Y0089824750D02*
X0092000000Y0089824750D01*
X0092000000Y0089824750D02*
X0092000000Y0089054750D01*
X0092000000Y0089709250D02*
X0091230000Y0089709250D01*
X0092000000Y0090479250D02*
X0091230000Y0090479250D01*
X0091615000Y0089709250D02*
X0091615000Y0090479250D01*
X0091230000Y0090363750D02*
X0092000000Y0090363750D01*
X0092000000Y0090363750D02*
X0092000000Y0091133750D01*
X0091615000Y0091172250D02*
X0091615000Y0091634250D01*
X0092000000Y0091672750D02*
X0091230000Y0091672750D01*
X0091230000Y0091672750D02*
X0091230000Y0092442750D01*
X0091230000Y0092442750D02*
X0091615000Y0092442750D01*
X0091615000Y0092442750D02*
X0091615000Y0091672750D01*
X0091230000Y0092981750D02*
X0092000000Y0093366750D01*
X0092000000Y0093366750D02*
X0091230000Y0093751750D01*
X0091230000Y0093636250D02*
X0091230000Y0094406250D01*
X0091230000Y0094406250D02*
X0091615000Y0094406250D01*
X0091615000Y0094406250D02*
X0092000000Y0093636250D01*
X0092000000Y0093636250D02*
X0092000000Y0094406250D01*
X0092000000Y0094945250D02*
X0091230000Y0095715250D01*
X0092000000Y0096254250D02*
X0091230000Y0096254250D01*
X0091230000Y0096254250D02*
X0091615000Y0096639250D01*
X0091615000Y0096639250D02*
X0091230000Y0097024250D01*
X0091230000Y0097024250D02*
X0092000000Y0097024250D01*
X0092000000Y0097293750D02*
X0091230000Y0097293750D01*
X0091230000Y0097062750D02*
X0091230000Y0097524750D01*
X0092000000Y0097062750D02*
X0092000000Y0097524750D01*
X0092000000Y0097948250D02*
X0091230000Y0097948250D01*
X0091230000Y0097563250D02*
X0091230000Y0098333250D01*
X0045835000Y0077500000D02*
X0045835000Y0078200000D01*
X0045835000Y0078200000D02*
X0046535000Y0078200000D01*
X0046535000Y0078200000D02*
X0046535000Y0077500000D01*
X0046535000Y0077500000D02*
X0045835000Y0077500000D01*
X0045835000Y0077850000D02*
X0046535000Y0077850000D01*
X0046430000Y0077500000D02*
X0046430000Y0078200000D01*
X0046430000Y0078200000D02*
X0047130000Y0078200000D01*
X0047130000Y0078200000D02*
X0047130000Y0077500000D01*
X0047130000Y0077500000D02*
X0046430000Y0077500000D01*
X0046430000Y0077500000D02*
X0047130000Y0078200000D01*
X0047025000Y0077500000D02*
X0047725000Y0078200000D01*
X0047025000Y0078200000D02*
X0047725000Y0077500000D01*
X0048320000Y0078200000D02*
X0047620000Y0078200000D01*
X0047620000Y0078200000D02*
X0047620000Y0077500000D01*
X0047620000Y0077500000D02*
X0048320000Y0077500000D01*
X0048320000Y0077500000D02*
X0048320000Y0077850000D01*
X0048320000Y0077850000D02*
X0047620000Y0077850000D01*
X0048215000Y0077500000D02*
X0048215000Y0078200000D01*
X0048215000Y0078200000D02*
X0048915000Y0078200000D01*
X0048915000Y0078200000D02*
X0048915000Y0077500000D01*
X0048915000Y0077500000D02*
X0048215000Y0077500000D01*
X0048215000Y0077500000D02*
X0048915000Y0078200000D01*
X0049405000Y0077500000D02*
X0049405000Y0078200000D01*
X0049405000Y0078200000D02*
X0049755000Y0077850000D01*
X0049755000Y0077850000D02*
X0050105000Y0078200000D01*
X0050105000Y0078200000D02*
X0050105000Y0077500000D01*
X0050000000Y0078200000D02*
X0050700000Y0078200000D01*
X0050700000Y0078200000D02*
X0050350000Y0077850000D01*
X0050350000Y0077850000D02*
X0050700000Y0077850000D01*
X0050700000Y0077850000D02*
X0050700000Y0077500000D01*
X0050700000Y0077500000D02*
X0050000000Y0077500000D01*
X0051190000Y0077500000D02*
X0051190000Y0078200000D01*
X0051190000Y0078200000D02*
X0051540000Y0077850000D01*
X0051540000Y0077850000D02*
X0051890000Y0078200000D01*
X0051890000Y0078200000D02*
X0051890000Y0077500000D01*
X0051785000Y0077500000D02*
X0051785000Y0078200000D01*
X0051785000Y0078200000D02*
X0052485000Y0078200000D01*
X0052485000Y0078200000D02*
X0052485000Y0077500000D01*
X0052485000Y0077500000D02*
X0051785000Y0077500000D01*
X0052380000Y0078200000D02*
X0052380000Y0077500000D01*
X0052380000Y0077500000D02*
X0053080000Y0077500000D01*
X0053080000Y0077500000D02*
X0053080000Y0078200000D01*
X0052975000Y0077500000D02*
X0052975000Y0078200000D01*
X0052975000Y0078200000D02*
X0053675000Y0077500000D01*
X0053675000Y0077500000D02*
X0053675000Y0078200000D01*
X0053920000Y0077500000D02*
X0053920000Y0078200000D01*
X0053570000Y0078200000D02*
X0054270000Y0078200000D01*
M02*
